<svg width="100%" height="600" version="1.1" xmlns="http://www.w3.org/2000/svg">

<circle cx="300" cy="300" r="200" fill="rgb(240, 219, 128)"></circle>

    <defs>
<radialGradient id="yellow" cx="50%" cy="50%" r="50%" fx="50%" fy="50%">
<stop offset="0%" style="stop-color:rgb(236,183,100); stop-opacity:0"></stop>
<stop offset="100%" style="stop-color: rgb(236, 183, 100);stop-opacity:1;"></stop>
</radialGradient>
</defs>

<ellipse cx="300" cy="300" rx="200" ry="200" style="fill:url(#yellow)"></ellipse><path d="M100 240 C 150 200, 251 200, 280 240" style="fill:white;stroke: rgb(237, 167, 59);stroke-width: 5;"></path><path d="M100 240 C 150 300, 251 300, 280 240" style="fill:white;stroke: rgb(237, 167, 59);stroke-width: 5;"></path><circle cx="150" cy="245" r="20" stroke-width="2" fill="rgb(94, 38, 10)"></circle>

    
    
    
    <path d="M320 240 C 370 200, 471 200, 500 240" style="fill:white;stroke: rgb(237, 167, 59);stroke-width: 5;"></path><path d="M320 240 C 370 300, 471 300, 500 240" style="fill:white;stroke: rgb(237, 167, 59);stroke-width: 5;"></path><circle cx="380" cy="245" r="20" stroke-width="2" fill="rgb(94, 38, 10)"></circle>
<path d="M150 350 C 150 500, 450 500, 450 350" stroke="rgb(104, 43, 1)" fill="transparent" stroke-width="7px"></path>

    
    
    
    <defs>
<radialGradient id="left" cx="50%" cy="50%" r="50%" fx="50%" fy="50%">
	<stop offset="0%" style="stop-color:rgb(247,117,132);stop-opacity:1"></stop>
      <stop offset="100%" style="stop-color:rgb(238, 200, 112);stop-opacity:0"></stop>

</radialGradient>
</defs>

<ellipse cx="180" cy="320" rx="70" ry="20" style="fill:url(#left)"></ellipse><ellipse cx="400" cy="320" rx="70" ry="20" style="fill:url(#left)"></ellipse>
    
     <path d="M150 160 C 150 150, 200 80, 250 160" stroke="black" fill="transparent" stroke-width="8"></path><path d="M350 160 C 350 150, 400 80, 450 160" stroke="black" fill="transparent" stroke-width="8"></path>
</svg>